<?xml version="1.0" encoding="utf-8"?>
<!-- Generator: Adobe Illustrator 21.0.2, SVG Export Plug-In . SVG Version: 6.00 Build 0)  -->
<svg version="1.1" id="Layer_1" xmlns="http://www.w3.org/2000/svg" xmlns:xlink="http://www.w3.org/1999/xlink" x="0px" y="0px"
	 viewBox="0 0 500 250" style="enable-background:new 0 0 500 250;" xml:space="preserve">
<style type="text/css">
	.st0{fill:#F0C6BF;}
	.st1{fill:#E99F96;}
	.st2{fill:#F2E1DE;}
	.st3{fill:#540836;}
</style>
<g>
	<path class="st0" d="M314.3,97.8V60.7c0-5-4-9-9-9s-9,4-9,9v37.1h-1.1V42.9c0-6.6-5.4-12-12-12l0,0c-6.6,0-12,5.4-12,12v54.9h-1.6
		V31.3c0-6.6-5.4-12-12-12h0c-6.6,0-12,5.4-12,12v66.5h-1.6V39.2c0-6.6-5.4-12-12-12s-12,5.4-12,12v58.6h0v20.5l-2.1-2.1
		c-8.1-8.1-21.2-8.1-29.3,0c-3.6,3.6-3.6,9.4,0,13l41.1,41.1c2,2,4.4,3.6,6.9,4.7c4.1,2,8.6,3.2,13.5,3.2h34.4c16.6,0,30-13.4,30-30
		L314.3,97.8L314.3,97.8z"/>
	<path class="st1" d="M284.2,178.1h-22.5c0.2-0.2,0.4-0.4,0.5-0.6c4.2-5.2,5.6-12,4.3-18.2c-0.7,3.3-2.1,6.4-4.3,9.1
		c-6.5,8.1-17.2,10.3-25.9,6.5c-0.3-0.1-0.6-0.3-0.9-0.4v47.1h63.1v-47.1C294.4,176.8,289.5,178.1,284.2,178.1z"/>
	<g>
		<path class="st2" d="M188.4,125.3L188.4,125.3c8.1-8.1,21.2-8.1,29.3,0l18.4,18.4c8.7-3.9,19.4-1.8,26,6.2c2.3,2.8,3.7,6,4.4,9.3
			c1.3-6.4-0.1-13.2-4.4-18.5c-6.6-8-17.3-10.1-26-6.2l-18.4-18.4c-8.1-8.1-21.2-8.1-29.3,0l0,0c-3,3-3.5,7.5-1.5,11
			C187.3,126.5,187.8,125.9,188.4,125.3z"/>
	</g>
	<g>
		<path class="st2" d="M231.8,27.2L231.8,27.2c-6.6,0-12,5.4-12,12v9.1c0-6.6,5.4-12,12-12h0c6.6,0,12,5.4,12,12v-9.1
			C243.9,32.6,238.5,27.2,231.8,27.2z"/>
	</g>
	<g>
		<path class="st2" d="M305.3,51.7c-5,0-9,4-9,9v9.1c0-5,4-9,9-9c5,0,9,4,9,9v-9.1C314.3,55.8,310.3,51.7,305.3,51.7z"/>
	</g>
	<g>
		<path class="st2" d="M257.5,19.3L257.5,19.3c-6.6,0-12,5.4-12,12v9.1c0-6.6,5.4-12,12-12h0c6.6,0,12,5.4,12,12v-9.1
			C269.5,24.7,264.1,19.3,257.5,19.3z"/>
	</g>
	<g>
		<path class="st2" d="M283.1,30.9L283.1,30.9c-6.6,0-12,5.4-12,12V52c0-6.6,5.4-12,12-12l0,0c6.6,0,12,5.4,12,12v-9.1
			C295.1,36.3,289.8,30.9,283.1,30.9z"/>
	</g>
	<path class="st3" d="M316.6,60.7c0-6.2-5.1-11.3-11.3-11.3c-3.1,0-5.8,1.2-7.9,3.2v-9.8c0-7.9-6.4-14.3-14.3-14.3
		c-4.6,0-8.7,2.2-11.3,5.6v-2.9c0-7.9-6.4-14.3-14.3-14.3c-7.6,0-13.9,6-14.3,13.5c-2.6-3.4-6.7-5.6-11.4-5.6
		c-7.9,0-14.3,6.4-14.3,14.3l0,73.8c-9-7.3-22.3-6.8-30.7,1.6c-2.2,2.2-3.4,5-3.4,8.1c0,3.1,1.2,5.9,3.4,8.1l41.1,41.1
		c0.2,0.2,0.3,0.3,0.5,0.4c1.5,1.3,3.1,2.5,4.8,3.5v45.8c0,1.3,1,2.3,2.3,2.3h63.1c1.3,0,2.3-1,2.3-2.3v-45.8
		c9.7-5.8,15.7-16.3,15.7-27.7L316.6,60.7z M297.5,172.5c-0.7,0.4-1.2,1.2-1.2,2v44.9h-58.6v-44.9c0-0.8-0.5-1.6-1.2-2
		c-2-1.1-3.8-2.4-5.5-3.9c-0.1-0.1-0.2-0.2-0.3-0.3L190,127.5c-1.3-1.3-2-3-2-4.9c0-1.8,0.7-3.6,2-4.9c7.2-7.2,18.9-7.2,26.1,0
		l2.1,2.1l0,0l16.3,16.3c0.7,0.7,1.7,0.9,2.5,0.5c8.1-3.6,17.7-1.3,23.3,5.6c5.8,7.1,5.9,17.5,0.2,24.7c-0.8,1-0.6,2.4,0.4,3.2
		c1,0.8,2.4,0.6,3.2-0.4c7.1-8.9,7-21.7-0.2-30.4c-6.6-8-17.6-11-27.2-7.4l-14.6-14.6l0-78.1c0-5.4,4.4-9.7,9.7-9.7
		c5.4,0,9.7,4.4,9.7,9.7v58.6c0,1.3,1,2.3,2.3,2.3h1.6c1.3,0,2.3-1,2.3-2.3V31.3c0-5.4,4.4-9.7,9.7-9.7c5.4,0,9.7,4.4,9.7,9.7v66.5
		c0,1.3,1,2.3,2.3,2.3h1.6c1.3,0,2.3-1,2.3-2.3V42.9c0-5.4,4.4-9.7,9.7-9.7c5.4,0,9.7,4.4,9.7,9.7v54.9c0,1.3,1,2.3,2.3,2.3h1.1
		c1.3,0,2.3-1,2.3-2.3V60.7c0-3.7,3-6.7,6.7-6.7s6.7,3,6.7,6.7l0,87.3C312,158.2,306.5,167.6,297.5,172.5z"/>
</g>
<g>
	<path class="st0" d="M105.7,74.6c-5,0-9,4-9,9v13.7h-1.1V80.1c0-6.6-5.4-12-12-12l0,0c-6.6,0-12,5.4-12,12v17.2h-1.6V75.7
		c0-6.6-5.4-12-12-12h0c-6.6,0-12,5.4-12,12v21.6h-1.6V78.3c0-6.6-5.4-12-12-12s-12,5.4-12,12v21.9c-4.6,0-8.7,3-10,7.4l-3.8,12.6
		c-2.4,7.9-0.9,16.5,4,23.2l14.6,20.4c0.5,0.8,1,1.5,1.6,2.2l0.1,0.1c0,0,0,0,0,0c5.5,6.9,14,11.3,23.5,11.3h34.4
		c16.6,0,30-13.4,30-30v-64C114.7,78.6,110.7,74.6,105.7,74.6z"/>
	<g>
		<path class="st2" d="M32.3,66.3L32.3,66.3c-6.6,0-12,5.4-12,12v9.1c0-6.6,5.4-12,12-12l0,0c6.6,0,12,5.4,12,12v-9.1
			C44.3,71.7,38.9,66.3,32.3,66.3z"/>
	</g>
	<g>
		<path class="st2" d="M57.9,63.7c-6.6,0-12,5.4-12,12v9.1c0-6.6,5.4-12,12-12c6.6,0,12,5.4,12,12v-9.1
			C69.9,69.1,64.5,63.7,57.9,63.7z"/>
	</g>
	<g>
		<path class="st2" d="M83.6,68c-6.6,0-12,5.4-12,12v9.1c0-6.6,5.4-12,12-12c6.6,0,12,5.4,12,12v-9.1C95.6,73.4,90.2,68,83.6,68z"/>
	</g>
	<g>
		<g>
			<path class="st2" d="M40.4,132.8c-0.9,0.2-1.8,0.5-2.6,0.8c-0.4,0.2-0.8,0.3-1.2,0.5v9.1c8.6-3.8,19.2-1.9,25.8,5.9
				c2.4,2.8,4,6.2,4.7,9.6c1.4-6.5-0.2-13.5-4.7-18.7C56.7,133.3,48.1,130.9,40.4,132.8z"/>
		</g>
	</g>
	<g>
		<g>
			<path class="st2" d="M6.4,129.4l3.8-12.6c1.3-4.4,5.4-7.4,10-7.4h43c3.8,0,7,2.3,8.4,5.6c0.5-1.7,0.7-3.6,0.7-5.5
				c0-5.1-4.1-9.2-9.2-9.2h-43c-4.6,0-8.7,3-10,7.4l-3.8,12.6c-1.2,4-1.4,8.1-0.7,12.1C5.9,131.4,6.1,130.4,6.4,129.4z"/>
		</g>
	</g>
	<g>
		<path class="st1" d="M62.2,177.6c4.5-5.3,6.1-12.3,4.7-18.8c-0.7,3.5-2.4,6.9-4.9,9.8c-8.5,9.7-26.4,6.6-35.4-2.3l-2-2.8
			c2.7,4.4,6.6,8,11.1,10.5v48.3h63.1v-48.3c-4.3,2.3-9.2,3.7-14.4,3.7H62.2z"/>
		<path class="st1" d="M83,119.2c6.9,0.3,12.6-5.2,12.6-12v-9.1c0,6.8-5.7,12.3-12.6,12c-6.5-0.3-11.4-5.9-11.4-12.3v9.1
			C71.5,113.3,76.5,118.9,83,119.2z"/>
		<path class="st1" d="M36.6,134c7.6-3.4,16.8-2.2,23.3,3.5c7.4-3.2,12.5-10.5,12.5-19c0-1.3-0.3-2.5-0.7-3.6
			c-2.4,8.8-10.4,15.2-20,15.2H22.2l2.8,4H36.6z"/>
		<path class="st1" d="M105.1,110.1c-4.8-0.3-8.4-4.5-8.4-9.3v9.1c0,4.8,3.6,9,8.4,9.3c5.2,0.3,9.6-3.8,9.6-9v-9.1
			C114.7,106.3,110.4,110.4,105.1,110.1z"/>
	</g>
	<g>
		<path class="st2" d="M105.7,74.6L105.7,74.6c-5,0-9,4-9,9v9.1c0-5,4-9,9-9h0c5,0,9,4,9,9v-9.1C114.7,78.6,110.7,74.6,105.7,74.6z"
			/>
	</g>
	<path class="st3" d="M105.7,72.3c-3.4,0-6.4,1.5-8.4,3.8c-1.7-6-7.2-10.3-13.7-10.3c-4.9,0-9.3,2.5-11.8,6.3
		c-1.6-6.1-7.2-10.6-13.8-10.6c-6.2,0-11.5,4-13.4,9.5c-2.5-4.1-7-6.9-12.2-6.9C24.4,64,18,70.4,18,78.3v19.8
		c-4.7,0.8-8.5,4.2-9.9,8.9l-3.8,12.6c-2.6,8.6-0.9,18,4.4,25.1l14.6,20.4c0.5,0.8,1.1,1.6,1.7,2.3l0.1,0.1c0.1,0.1,0.1,0.2,0.2,0.2
		c2.4,3,5.3,5.5,8.5,7.5v47c0,1.3,1,2.3,2.3,2.3h63.1c1.3,0,2.3-1,2.3-2.3v-47c9.7-5.8,15.7-16.3,15.7-27.7v-64
		C117,77.3,111.9,72.3,105.7,72.3z M99,83.6c0-3.7,3-6.7,6.7-6.7c3.7,0,6.7,3,6.7,6.7v17.6c0,1.9-0.8,3.6-2.1,4.9
		c-1.4,1.3-3.2,1.9-5.1,1.8c-3.5-0.2-6.3-3.3-6.3-7V83.6z M73.8,80.1c0-5.4,4.4-9.7,9.7-9.7c5.4,0,9.7,4.4,9.7,9.7v18
		c0,2.7-1.1,5.2-3,7.1c-1.9,1.9-4.5,2.8-7.2,2.7c-5.1-0.2-9.3-4.8-9.3-10.1V80.1z M48.2,75.7c0-5.4,4.4-9.7,9.7-9.7
		c5.4,0,9.7,4.4,9.7,9.7v22.4c0,0.2,0,0.5,0,0.7c-1.4-0.6-2.8-0.9-4.4-0.9H48.2c0,0,0-0.1,0-0.1V75.7z M22.5,78.3
		c0-5.4,4.4-9.7,9.7-9.7S42,73,42,78.3v19.6H22.5c0,0,0-0.1,0-0.1V78.3z M98,171.9c-0.7,0.4-1.2,1.2-1.2,2v46H38.2v-46
		c0-0.8-0.5-1.6-1.2-2c-3.3-1.8-6.1-4.2-8.4-7.1c0,0,0,0-0.1-0.1l0,0c0,0,0-0.1-0.1-0.1c-0.5-0.7-1-1.4-1.5-2.1c0,0,0-0.1-0.1-0.1
		l-14.6-20.4c-4.5-6-5.9-14-3.7-21.2l3.8-12.6c1.1-3.5,4.2-5.8,7.8-5.8h43c3.8,0,6.9,3.1,6.9,6.9c0,10.2-8.3,18.4-18.4,18.4H23.4
		c-1.3,0-2.3,1-2.3,2.3c0,1.3,1,2.3,2.3,2.3h9.8l1.3,2.7c0.5,1.1,1.9,1.6,3,1.1c8.1-3.6,17.4-1.5,23.1,5.3
		c6.2,7.3,6.2,18.4-0.2,25.6c-0.8,0.9-0.7,2.4,0.2,3.2c0.4,0.4,1,0.6,1.5,0.6c0.6,0,1.3-0.3,1.7-0.8c7.8-9,7.9-22.5,0.2-31.6
		c-2.4-2.8-5.3-5-8.5-6.5c10.8-1.8,19.1-11.3,19.1-22.7c0,0,0-0.1,0-0.1c2.3,1.8,5.1,3,8.2,3.1c0.2,0,0.5,0,0.7,0
		c3.7,0,7.2-1.4,9.9-4c0.8-0.8,1.5-1.7,2.1-2.6c1.7,3.7,5.2,6.3,9.4,6.5c0.3,0,0.5,0,0.8,0c2.4,0,4.8-0.8,6.7-2.2v37.3
		C112.4,157.7,106.9,167,98,171.9z"/>
</g>
<g>
	<path class="st0" d="M484.7,75.7c-5,0-9,4-9,9v13.7h-1.1V81.2c0-6.6-5.4-12-12-12c-6.6,0-12,5.4-12,12v17.2h-2.2l2.2-65.6
		c0.2-6.6-5-12.2-11.6-12.4c-6.6-0.2-12.2,5-12.4,11.6l-2.3,66.4h-0.7c0-0.3-0.1-0.7-0.1-1l-9.5-58.3c-1.1-6.6-7.3-11-13.8-9.9v0
		c-6.6,1.1-11,7.3-9.9,13.8l9.1,55.4v2.7c-4.6,0-8.7,3-10,7.4l-3.8,12.6c-2.4,7.9-0.9,16.5,4,23.2l13.7,19.1
		c5.2,9.1,14.9,15.3,26.2,15.3h34.4c16.6,0,30-13.4,30-30v-64C493.7,79.7,489.7,75.7,484.7,75.7z"/>
	<g>
		<path class="st2" d="M484.7,75.7c-5,0-9,4-9,9v9.1c0-5,4-9,9-9c5,0,9,4,9,9v-9.1C493.7,79.7,489.7,75.7,484.7,75.7z"/>
	</g>
	<g>
		<path class="st2" d="M462.5,69.2c-6.6,0-12,5.4-12,12v9.1c0-6.6,5.4-12,12-12c6.6,0,12,5.4,12,12v-9.1
			C474.5,74.6,469.1,69.2,462.5,69.2z"/>
	</g>
	<g>
		<path class="st2" d="M391.6,52.1c-1.1-6.6,3.4-12.7,9.9-13.8c6.4-1.1,12.5,3.2,13.7,9.5l-1.4-8.7c-1.1-6.6-7.3-11-13.8-9.9
			c-6.6,1.1-11,7.3-9.9,13.8L391.6,52.1z"/>
	</g>
	<g>
		<path class="st2" d="M438.9,20.4c-6.6-0.2-12.2,5-12.4,11.6l-0.3,8.6c0.5-6.4,5.9-11.4,12.4-11.1c6.6,0.2,11.8,5.8,11.6,12.4
			l0.3-9.1C450.8,26.2,445.6,20.6,438.9,20.4z"/>
	</g>
	<g>
		<g>
			<path class="st2" d="M419.3,133.7c-0.9,0.2-1.8,0.5-2.6,0.8c-0.4,0.2-0.8,0.3-1.2,0.5v9.1c8.6-3.8,19.2-1.9,25.8,5.9
				c2.4,2.8,4,6.2,4.7,9.6c1.4-6.5-0.2-13.5-4.7-18.7C435.6,134.2,427.1,131.8,419.3,133.7z"/>
		</g>
	</g>
	<g>
		<g>
			<path class="st2" d="M385.4,130.3l3.8-12.6c1.3-4.4,5.4-7.4,10-7.4h43c3.8,0,7,2.3,8.4,5.6c0.5-1.7,0.7-3.6,0.7-5.5
				c0-5.1-4.1-9.2-9.2-9.2h-43c-4.6,0-8.7,3-10,7.4l-3.8,12.6c-1.2,4-1.4,8.1-0.7,12.1C384.8,132.3,385.1,131.3,385.4,130.3z"/>
		</g>
	</g>
	<g>
		<path class="st1" d="M441,178.7c0-0.1,0.1-0.1,0.1-0.2c4.6-5.3,6.2-12.4,4.9-18.9c-0.7,3.6-2.4,7-4.9,9.8
			c-8.5,9.7-26.4,6.6-35.4-2.3l-2.6-3.7c2.8,5,7.1,9.2,12.2,11.9c-0.1-0.1-0.3-0.1-0.4-0.2v47.1H478v-47.1
			c-4.3,2.3-9.2,3.7-14.4,3.7H441z"/>
		<path class="st1" d="M484.1,111.3c-4.8-0.3-8.4-4.5-8.4-9.3v9.1c0,4.8,3.6,9,8.4,9.3c5.2,0.3,9.6-3.8,9.6-9v-9.1
			C493.7,107.5,489.3,111.6,484.1,111.3z"/>
		<path class="st1" d="M461.9,120.4c6.9,0.3,12.6-5.2,12.6-12v-9.1c0,6.8-5.7,12.3-12.6,12c-6.5-0.3-11.4-5.9-11.4-12.3v9.1
			C450.5,114.5,455.5,120.1,461.9,120.4z"/>
		<path class="st1" d="M415.5,135c7.6-3.4,16.7-2.2,23.3,3.5c7.4-3.2,12.5-10.5,12.5-19c0-1.3-0.3-2.5-0.7-3.6
			c-2.4,8.8-10.4,15.2-20,15.2h-29.5l2.8,4H415.5z"/>
	</g>
	<path class="st3" d="M484.7,73.4c-3.4,0-6.4,1.5-8.4,3.8c-1.7-5.9-7.2-10.3-13.7-10.3c-4.4,0-8.4,2-11,5.2l1.3-39.2
		c0.3-7.9-5.9-14.5-13.8-14.8c-7.9-0.3-14.5,5.9-14.8,13.8l-1.6,46.8l-6.5-39.9c-0.6-3.8-2.7-7.1-5.8-9.3c-3.1-2.2-6.9-3.1-10.7-2.5
		c-3.8,0.6-7.1,2.7-9.3,5.8c-2.2,3.1-3.1,6.9-2.5,10.7l9,55.2V99c-4.7,0.8-8.5,4.2-9.9,8.9l-3.8,12.6c-2.6,8.6-0.9,18,4.4,25.1
		l13.6,19c2.8,4.8,6.7,8.9,11.4,11.7v45.8c0,1.3,1,2.3,2.3,2.3H478c1.3,0,2.3-1,2.3-2.3v-45.8c9.7-5.8,15.7-16.3,15.7-27.7v-64
		C496,78.5,490.9,73.4,484.7,73.4z M452.8,81.2c0-5.4,4.4-9.7,9.7-9.7c5.4,0,9.7,4.4,9.7,9.7v18c0,2.7-1.1,5.2-3,7.1
		c-1.9,1.9-4.5,2.8-7.2,2.7c-5.1-0.2-9.3-4.8-9.3-10.1V81.2z M428.8,32.1c0.2-5.4,4.7-9.6,10.1-9.4c5.4,0.2,9.6,4.7,9.4,10.1
		L446,98.4c0,0.5,0.1,0.9,0.3,1.3c-1.3-0.5-2.7-0.8-4.2-0.8h-15.7c0-0.1,0-0.2,0-0.3L428.8,32.1z M392.4,42.7
		c-0.4-2.6,0.2-5.1,1.7-7.3c1.5-2.1,3.8-3.5,6.3-3.9c2.6-0.4,5.1,0.2,7.3,1.7c2.1,1.5,3.5,3.8,3.9,6.3l9.5,58.3
		c0,0.3,0.1,0.6,0.1,0.8c0,0.1,0,0.1,0,0.2h-19.8v-0.4c0-0.1,0-0.2,0-0.4L392.4,42.7z M476.9,173.1c-0.7,0.4-1.2,1.2-1.2,2v44.8
		h-58.6v-44.8c0-0.8-0.5-1.6-1.2-2c-4.6-2.5-8.3-6.2-10.9-10.8c0-0.1-0.1-0.1-0.1-0.2L391.2,143c-4.5-6-5.9-14-3.7-21.2l3.8-12.6
		c1.1-3.5,4.2-5.8,7.8-5.8h43c3.8,0,6.9,3.1,6.9,6.9c0,10.2-8.3,18.4-18.4,18.4h-28.2c-1.3,0-2.3,1-2.3,2.3c0,1.3,1,2.3,2.3,2.3h9.8
		l1.3,2.7c0.5,1.1,1.9,1.6,3,1.1c8.1-3.6,17.4-1.5,23.1,5.3c6.2,7.3,6.2,18.4-0.2,25.6c-0.8,0.9-0.7,2.4,0.2,3.2
		c0.4,0.4,1,0.6,1.5,0.6c0.6,0,1.3-0.3,1.7-0.8c7.8-9,7.9-22.5,0.2-31.6c-2.4-2.8-5.3-5-8.5-6.5c10.8-1.8,19.1-11.2,19.1-22.5
		c2.3,1.8,5.1,3,8.2,3.1c0.2,0,0.5,0,0.7,0c3.7,0,7.2-1.4,9.9-4c0.8-0.8,1.5-1.7,2.1-2.6c1.7,3.7,5.2,6.3,9.4,6.5c0.3,0,0.5,0,0.8,0
		c2.4,0,4.8-0.8,6.7-2.2v37.3C491.4,158.8,485.9,168.2,476.9,173.1z M491.4,102.3c0,1.9-0.8,3.6-2.1,4.9c-1.4,1.3-3.2,1.9-5.1,1.8
		c-3.5-0.2-6.3-3.3-6.3-7V84.7c0-3.7,3-6.7,6.7-6.7c3.7,0,6.7,3,6.7,6.7V102.3z"/>
</g>
</svg>
